<?xml version="1.0" standalone="no"?>
<!DOCTYPE svg PUBLIC "-//W3C//DTD SVG 20010904//EN"
 "http://www.w3.org/TR/2001/REC-SVG-20010904/DTD/svg10.dtd">
<svg version="1.0" xmlns="http://www.w3.org/2000/svg"
 width="640.000000pt" height="640.000000pt" viewBox="0 0 640.000000 640.000000"
 preserveAspectRatio="xMidYMid meet">

<g transform="translate(0.000000,640.000000) scale(0.100000,-0.100000)"
fill="#000000" stroke="none">
<path d="M0 3200 l0 -3200 3200 0 3200 0 0 3200 0 3200 -3200 0 -3200 0 0
-3200z m2390 894 l229 -226 43 27 c38 24 84 46 185 91 17 8 40 14 50 14 10 0
23 4 28 9 18 17 188 34 345 34 145 0 236 -9 320 -32 101 -28 180 -56 180 -63
0 -4 8 -8 18 -8 38 0 149 -65 301 -177 50 -37 231 -223 231 -238 0 -4 14 -24
30 -45 17 -21 30 -41 30 -46 0 -4 23 -53 50 -109 43 -85 49 -105 41 -127 -12
-32 -56 -43 -88 -22 -13 8 -23 19 -23 25 0 23 -91 192 -136 251 -56 76 -204
228 -220 228 -6 0 -17 7 -24 15 -38 46 -207 139 -300 166 -25 7 -49 16 -55 21
-5 4 -19 8 -31 8 -13 0 -25 4 -28 9 -4 5 -40 12 -81 16 -42 4 -78 11 -81 16
-7 11 -251 12 -258 1 -3 -5 -41 -12 -84 -15 -43 -3 -91 -13 -107 -21 -17 -9
-35 -16 -41 -16 -22 0 -194 -92 -194 -103 0 -17 238 -247 255 -247 8 0 15 4
15 9 0 16 164 61 250 68 49 4 58 2 78 -20 l23 -24 -31 -67 c-29 -62 -31 -75
-27 -143 3 -41 10 -80 16 -86 6 -6 11 -19 11 -29 0 -10 9 -26 20 -35 11 -10
20 -21 20 -26 0 -26 143 -127 181 -127 10 0 21 -4 24 -10 16 -26 183 -4 210
26 17 20 50 25 71 10 17 -13 19 -25 16 -101 -1 -57 -7 -94 -17 -108 -8 -12
-15 -32 -15 -46 0 -13 -6 -32 -14 -40 -8 -9 -17 -29 -20 -46 -6 -29 8 -44 279
-315 298 -298 307 -309 268 -352 -45 -50 1 -92 -1162 1072 -599 599 -1094
1097 -1099 1107 -7 12 -6 26 4 45 12 23 21 28 50 28 33 0 52 -16 264 -226z
m54 -393 c20 -8 24 -16 22 -45 -2 -27 -18 -51 -70 -107 -36 -40 -66 -78 -66
-85 0 -6 -9 -19 -21 -30 -11 -10 -27 -32 -34 -49 -21 -44 -63 -117 -75 -129
-5 -5 -10 -22 -10 -38 0 -54 -85 -75 -110 -27 -13 23 -2 95 16 110 8 6 14 19
14 29 0 10 7 23 15 30 8 7 15 18 15 26 0 17 104 170 146 214 19 20 34 41 34
47 0 17 59 63 80 63 10 0 30 -4 44 -9z m404 -390 c14 -8 471 -461 628 -624 57
-59 104 -115 104 -125 0 -10 -7 -27 -15 -39 -17 -24 -106 -73 -133 -73 -10 0
-23 -5 -28 -10 -17 -17 -249 -17 -289 0 -11 4 -39 13 -62 20 -24 7 -43 17 -43
22 0 4 -7 8 -14 8 -23 0 -106 58 -157 110 -50 51 -109 132 -109 150 0 6 -7 18
-15 26 -8 9 -15 28 -15 42 0 15 -7 38 -16 50 -26 37 -22 232 7 316 12 37 26
69 30 72 5 3 9 13 9 23 0 41 68 59 118 32z"/>
</g>
</svg>
